<?xml version="1.0" encoding="UTF-8"?>
<svg width="46px" height="46px" viewBox="0 0 46 46" version="1.1" xmlns="http://www.w3.org/2000/svg" xmlns:xlink="http://www.w3.org/1999/xlink">
    <!-- Generator: Sketch 52.6 (67491) - http://www.bohemiancoding.com/sketch -->
    <title>magnifying_glass</title>
    <desc>Created with Sketch.</desc>
    <g id="Page-1" stroke="none" stroke-width="1" fill="none" fill-rule="evenodd">
        <g id="magnifying_glass" fill="#000000">
            <g>
                <path d="M14.6,28.6 C10.8,28.6 7.2,27.1 4.5,24.4 C1.8,21.7 0.3,18.1 0.3,14.3 C0.3,10.5 1.8,6.9 4.5,4.2 C7.2,1.5 10.8,-3.55271368e-15 14.6,-3.55271368e-15 C18.4,-3.55271368e-15 22,1.5 24.7,4.2 C27.4,6.9 28.9,10.5 28.9,14.3 C28.9,18.1 27.4,21.7 24.7,24.4 C22,27.1 18.4,28.6 14.6,28.6 Z M14.6,2.1 C11.3,2.1 8.2,3.4 5.9,5.7 C3.6,8 2.3,11.1 2.3,14.4 C2.3,17.7 3.6,20.8 5.9,23.1 C8.2,25.4 11.3,26.7 14.6,26.7 C17.9,26.7 21,25.4 23.3,23.1 C25.6,20.8 26.9,17.7 26.9,14.4 C26.9,11.1 25.6,8 23.3,5.7 C21,3.4 17.8,2.1 14.6,2.1 Z" id="Shape" fill-rule="nonzero"></path>
                <path d="M39.7,45.9 C39.2,45.9 38.7,45.7 38.3,45.3 L26.1,33.1 C25.3,32.3 25.3,31.1 26.1,30.3 L30.5,25.9 C31.3,25.1 32.6,25.1 33.3,25.9 L45.6,38 C46.4,38.8 46.4,40 45.6,40.8 L41.2,45.2 C40.7,45.7 40.2,45.9 39.7,45.9 Z M32,27.3 L27.6,31.7 L39.8,43.9 C39.8,43.9 39.8,43.9 39.8,43.9 L44.2,39.5 L32,27.3 Z" id="Shape" fill-rule="nonzero"></path>
                <rect id="Rectangle" transform="translate(26.421880, 26.625200) rotate(45.000000) translate(-26.421880, -26.625200) " x="22.9219136" y="25.6252096" width="6.99993287" height="1.99998082"></rect>
            </g>
        </g>
    </g>
</svg>