<svg height='100px' width='100px' fill="#000000" xmlns:dc="http://purl.org/dc/elements/1.1/" xmlns:cc="http://creativecommons.org/ns#" xmlns:rdf="http://www.w3.org/1999/02/22-rdf-syntax-ns#" xmlns:svg="http://www.w3.org/2000/svg" xmlns="http://www.w3.org/2000/svg" xmlns:sodipodi="http://sodipodi.sourceforge.net/DTD/sodipodi-0.dtd" xmlns:inkscape="http://www.inkscape.org/namespaces/inkscape" version="1.1" x="0px" y="0px" viewBox="0 0 100 100">
  <g transform="translate(0,-952.36218)">
    <path style="font-size:medium;font-style:normal;font-variant:normal;font-weight:normal;font-stretch:normal;text-indent:0;text-align:start;text-decoration:none;line-height:normal;letter-spacing:normal;word-spacing:normal;text-transform:none;direction:ltr;block-progression:tb;writing-mode:lr-tb;text-anchor:start;baseline-shift:baseline;opacity:1;color:#000000;fill:#000000;fill-opacity:1;stroke:none;stroke-width:4.00000047999999970;marker:none;visibility:visible;display:inline;overflow:visible;enable-background:accumulate;font-family:Sans;-inkscape-font-specification:Sans" d="m 38.988274,963.39343 c -2.462408,0 -4.998225,2.01468 -4.998225,4.998 l 0,2.9988 -0.999645,0 c -5.102937,0 -8.996805,4.62691 -8.996805,9.99599 l 0,18.18022 C 13.835582,1001.0307 5.96875,1009.8195 5.96875,1020.3706 c 0,11.5697 9.453603,21.0228 21.023784,21.0228 11.23958,0 20.474228,-8.9081 20.992545,-20.0232 l 36.986866,0 c 5.102937,0 8.996805,-4.6269 8.996805,-9.996 l 0,-29.98798 c 0,-5.36908 -3.893868,-9.99599 -8.996805,-9.99599 l -32.988286,0 0,-2.9988 c 0,-2.98332 -2.535816,-4.998 -4.998225,-4.998 l -7.99716,0 z m 0,3.9984 7.99716,0 c 0.445059,0 0.999645,0.18551 0.999645,0.9996 l 0,2.9988 -9.99645,0 0,-2.9988 c 0,-0.81409 0.554586,-0.9996 0.999645,-0.9996 z m -5.99787,7.99679 2.842741,0 14.338658,0 34.800142,0 c 2.65031,0 4.998225,2.50623 4.998225,5.9976 l 0,12.9948 -18.181044,0 c -0.969317,-6.20695 -6.336341,-10.9956 -12.807951,-10.9956 -6.471612,0 -11.838634,4.78865 -12.807952,10.9956 l -18.181044,0 0,-12.9948 c 0,-3.49137 2.347915,-5.9976 4.998225,-5.9976 z m 46.983316,0.9996 c -2.734434,0 -4.998225,2.26369 -4.998225,4.998 0,2.73432 2.263787,4.998 4.998225,4.998 l 3.99858,0 c 2.734434,0 4.998225,-2.26368 4.998225,-4.998 0,-2.73431 -2.263787,-4.998 -4.998225,-4.998 l -3.99858,0 z m 0,3.9984 3.99858,0 c 0.588386,0 0.999645,0.41125 0.999645,0.9996 0,0.58836 -0.411263,0.9996 -0.999645,0.9996 l -3.99858,0 c -0.588386,0 -0.999645,-0.41124 -0.999645,-0.9996 0,-0.58835 0.411263,-0.9996 0.999645,-0.9996 z m -20.992545,6.9972 c 4.992481,0 8.996805,4.00411 8.996805,8.99639 0,4.99229 -4.004324,8.99639 -8.996805,8.99639 -4.992483,0 -8.996806,-4.0041 -8.996806,-8.99639 0,-4.99228 4.004323,-8.99639 8.996806,-8.99639 z m -30.988996,10.99559 18.181044,0 c 0.969318,6.20699 6.33634,10.99559 12.807952,10.99559 6.47161,0 11.838634,-4.7886 12.807951,-10.99559 l 18.181044,0 0,12.99479 c 0,3.4914 -2.347915,5.9976 -4.998225,5.9976 l -37.174299,0 c -1.418429,-9.8393 -9.697251,-17.52146 -19.805467,-17.99279 l 0,-0.9996 z m -0.999645,5.02919 c 9.409189,0 16.962726,7.5533 16.962726,16.962 0,9.4087 -7.553537,16.962 -16.962726,16.962 -9.409189,0 -16.962726,-7.5533 -16.962726,-16.962 0,-9.4087 7.553537,-16.962 16.962726,-16.962 z m -1.99929,5.9664 c -4.945116,0 -8.996805,4.0516 -8.996805,8.9964 0,4.9449 4.051655,8.9964 8.996805,8.9964 1.755142,0 3.390715,-0.5262 4.779553,-1.4057 l 4.810791,4.8106 a 1.9994899,1.9993989 0 1 0 2.811502,-2.8426 l -4.779553,-4.7794 c 0.874413,-1.3859 1.374512,-3.0298 1.374512,-4.7793 0,-4.9448 -4.051694,-8.9964 -8.996805,-8.9964 z m 0,3.9984 c 2.784118,0 4.998225,2.2141 4.998225,4.998 0,2.784 -2.214141,4.998 -4.998225,4.998 -2.784093,0 -4.998225,-2.214 -4.998225,-4.998 0,-2.7839 2.214098,-4.998 4.998225,-4.998 z"></path>
  </g>
</svg>